<svg fill="none" viewBox="0 0 193 70" xmlns="http://www.w3.org/2000/svg"><path d="m185 0h-177c-4.41828 0-8 3.58172-8 8v54c0 4.4183 3.58172 8 8 8h177c4.418 0 8-3.5817 8-8v-54c0-4.41828-3.582-8-8-8z" fill="#2c2643"/><g fill="#fff"><path d="m40.9928 34.3314c.0349-2.6834 1.4564-5.162 3.7663-6.5675-1.4639-2.0691-3.8278-3.3339-6.3787-3.4129-2.6838-.2788-5.2856 1.5894-6.6532 1.5894-1.394 0-3.4996-1.5617-5.7671-1.5155-2.9833.0954-5.6971 1.7334-7.1486 4.3148-3.0909 5.2962-.7853 13.08 2.1755 17.3612 1.4814 2.0963 3.2127 4.438 5.478 4.3549 2.2168-.091 3.0448-1.399 5.7206-1.399 2.6511 0 3.4278 1.399 5.7392 1.3462 2.3787-.0382 3.8774-2.1056 5.3068-4.2218 1.0644-1.4937 1.8834-3.1446 2.4267-4.8915-2.8252-1.1827-4.6622-3.9224-4.6655-6.9583z"/><path d="m36.6271 21.5355c1.297-1.5409 1.936-3.5216 1.7813-5.5212-1.9815.2059-3.8119 1.1432-5.1264 2.625-1.298 1.462-1.9556 3.3747-1.8279 5.3168 2.0081.0205 3.9147-.8717 5.173-2.4206z"/><path d="m69.0145 45.1488h-7.5649l-1.8167 5.309h-3.2042l7.1654-19.642h3.329l7.1654 19.642h-3.2588zm-6.7814-2.4499h5.9964l-2.956-8.6161h-.0827z"/><path d="m89.5636 43.2983c0 4.4501-2.4067 7.3093-6.0385 7.3093-1.8773.0972-3.6456-.8759-4.5527-2.5055h-.0687v7.0931h-2.9701v-19.058h2.8749v2.3819h.0547c.9474-1.6193 2.7176-2.592 4.6073-2.5317 3.6723 0 6.0931 2.8731 6.0931 7.3109zm-3.0528 0c0-2.8993-1.5139-4.8055-3.8238-4.8055-2.2694 0-3.7958 1.9463-3.7958 4.8055 0 2.8854 1.5264 4.8178 3.7958 4.8178 2.3099 0 3.8238-1.8922 3.8238-4.8178z"/><path d="m105.489 43.2983c0 4.4501-2.406 7.3093-6.0381 7.3093-1.8773.0972-3.6456-.8759-4.5527-2.5055h-.0687v7.0931h-2.9701v-19.058h2.8748v2.3819h.0547c.9474-1.6193 2.7176-2.592 4.6073-2.5317 3.6728 0 6.0928 2.8731 6.0928 7.3109zm-3.052 0c0-2.8993-1.514-4.8055-3.8243-4.8055-2.2693 0-3.7957 1.9463-3.7957 4.8055 0 2.8854 1.5264 4.8178 3.7957 4.8178 2.3103 0 3.8243-1.8922 3.8243-4.8178z"/><path d="m116.015 44.985c.22 1.9479 2.132 3.2268 4.745 3.2268 2.503 0 4.304-1.279 4.304-3.0353 0-1.5246-1.086-2.4374-3.658-3.0631l-2.572-.6132c-3.645-.8712-5.336-2.5579-5.336-5.2951 0-3.389 2.984-5.7168 7.221-5.7168 4.194 0 7.069 2.3278 7.165 5.7168h-2.998c-.179-1.9602-1.817-3.1434-4.209-3.1434-2.393 0-4.03 1.1972-4.03 2.9395 0 1.3887 1.046 2.2058 3.604 2.8313l2.186.5314c4.072.953 5.764 2.5719 5.764 5.4449 0 3.6748-2.957 5.9763-7.661 5.9763-4.402 0-7.373-2.2475-7.565-5.8002z"/><path d="m134.61 32.7482v3.389h2.752v2.3278h-2.752v7.8948c0 1.2264.551 1.798 1.761 1.798.327-.0057.653-.0284.977-.068v2.3139c-.544.1005-1.097.1461-1.65.1359-2.929 0-4.072-1.089-4.072-3.8663v-8.2083h-2.104v-2.3278h2.104v-3.389z"/><path d="m138.956 43.2983c0-4.5058 2.681-7.3371 6.863-7.3371 4.195 0 6.864 2.8312 6.864 7.3371 0 4.5181-2.655 7.3371-6.864 7.3371-4.208 0-6.863-2.819-6.863-7.3371zm10.7 0c0-3.0909-1.431-4.9151-3.837-4.9151-2.407 0-3.837 1.8381-3.837 4.9151 0 3.1032 1.43 4.9135 3.837 4.9135 2.406 0 3.837-1.8103 3.837-4.9135z"/><path d="m155.132 36.1372h2.833v2.4375h.068c.395-1.5691 1.848-2.649 3.481-2.5873.342-.0012.683.0356 1.017.1097v2.7494c-.432-.1306-.882-.1906-1.334-.1776-.873-.035-1.718.3094-2.313.9428s-.881 1.4926-.782 2.352v8.494h-2.97z"/><path d="m176.225 46.2517c-.399 2.5996-2.957 4.3837-6.23 4.3837-4.209 0-6.822-2.7912-6.822-7.2692 0-4.4918 2.627-7.4051 6.697-7.4051 4.003 0 6.521 2.7217 6.521 7.0638v1.0071h-10.22v.1776c-.095 1.0661.277 2.1215 1.021 2.8975.745.7761 1.791 1.1982 2.872 1.1588 1.441.1336 2.8-.6855 3.341-2.0143zm-10.04-4.2741h7.234c.054-.958-.298-1.8948-.972-2.5848-.674-.6899-1.608-1.0704-2.577-1.0498-.977-.0058-1.916.3749-2.608 1.0574s-1.079 1.6103-1.077 2.5772z"/><path d="m58.0273 20.7532c0-3.0607 1.6451-4.9514 4.2952-4.9514 1.9805-.0971 3.7052 1.3254 3.9659 3.2708h-1.4749c-.2554-1.1476-1.3046-1.9494-2.491-1.9038-1.7121 0-2.7828 1.3802-2.7828 3.5844 0 2.1981 1.0707 3.5774 2.7891 3.5774 1.1424.0847 2.1847-.645 2.4847-1.7392h1.4749c-.2984 1.8995-2.0229 3.2524-3.9596 3.1063-2.6501 0-4.3015-1.8899-4.3015-4.9445z"/><path d="m67.9087 21.9048c-.1234-1.2767.4951-2.5122 1.5962-3.1884 1.101-.6762 2.4942-.6762 3.5953 0 1.101.6762 1.7196 1.9117 1.5962 3.1884.1257 1.278-.4923 2.5159-1.5943 3.1935-1.102.6777-2.4971.6777-3.5992 0-1.102-.6776-1.72-1.9155-1.5942-3.1935zm5.3268 0c0-1.5439-.7008-2.4468-1.9306-2.4468-1.2346 0-1.9291.9029-1.9291 2.4468 0 1.5562.6946 2.4521 1.9291 2.4521 1.2298 0 1.9306-.9021 1.9306-2.4521z"/><path d="m76.6016 18.3466h1.3672v1.1315h.1061c.3691-.8331 1.2315-1.3427 2.1476-1.269.7093-.0527 1.4044.2166 1.889.7319.4845.5154.706 1.2208.6019 1.9172v4.6108h-1.4202v-4.2578c0-1.1446-.5026-1.7138-1.553-1.7138-.4811-.0222-.948.1647-1.2783.5116s-.491.8193-.4401 1.2933v4.1667h-1.4202z"/><path d="m87.5406 18.2091c1.6185 0 2.6766.7453 2.8156 2.0011h-1.3626c-.131-.5228-.6477-.8565-1.453-.8565-.7929 0-1.3952.3723-1.3952.9284 0 .4255.3636.6935 1.144.8704l1.1954.2742c1.3688.3143 2.0103.8966 2.0103 1.9431 0 1.3408-1.2626 2.2367-2.9811 2.2367-1.7121 0-2.828-.7654-2.9544-2.0274h1.4219c.2521.6182.8989.9855 1.5654.889.8849 0 1.5139-.3923 1.5139-.9616 0-.4247-.3371-.6997-1.0582-.8696l-1.2548-.2881c-1.3688-.3205-2.0025-.9283-2.0025-1.988 0-1.2627 1.169-2.1517 2.7953-2.1517z"/><path d="m92.2891 17.1557 1.659-2.2498h1.6654l-1.8573 2.2498zm.1467 1.1909h1.414v7.1224h-1.414z"/><path d="m96.0614 26.1819h1.4531c.1201.5167.721.8503 1.6793.8503 1.1832 0 1.8842-.556 1.8842-1.4975v-1.367h-.107c-.454.7802-1.3118 1.2424-2.2204 1.1963-1.837 0-2.9733-1.4056-2.9733-3.538 0-2.1718 1.1487-3.5975 2.9873-3.5975.9312-.0321 1.8024.4522 2.2604 1.2558h.112v-1.1377h1.361v7.1811c0 1.6288-1.289 2.6622-3.3245 2.6622-1.798 0-2.9607-.7978-3.1121-2.008zm5.0426-4.3629c0-1.4188-.741-2.3278-1.9508-2.3278-1.222 0-1.9088.9091-1.9088 2.3278 0 1.4196.6868 2.3286 1.9088 2.3286 1.2178 0 1.9508-.9021 1.9508-2.3286z"/><path d="m110.828 25.469h-1.369v-1.1314h-.112c-.373.8421-1.249 1.3532-2.174 1.2689-.705.0495-1.395-.2193-1.877-.7313-.481-.512-.703-1.2122-.602-1.9046v-4.624h1.422v4.2579c0 1.1507.469 1.7006 1.513 1.7006.49.0461.975-.1292 1.32-.4771.345-.3478.513-.8311.457-1.3154v-4.166h1.422z"/><path d="m119.177 23.5459c-.399 1.3435-1.712 2.2116-3.119 2.0606-.959.0251-1.882-.3686-2.522-1.0765-.64-.708-.933-1.6586-.802-2.5998-.128-.9437.164-1.8959.801-2.6098.637-.714 1.555-1.1194 2.517-1.1113 2.002 0 3.21 1.354 3.21 3.5906v.4905h-5.081v.0787c-.045.5285.137 1.0513.502 1.4398.365.3884.878.6066 1.414.6007.695.0825 1.371-.2586 1.712-.8635zm-4.996-2.2953h3.635c.036-.4834-.136-.9594-.473-1.3108-.338-.3514-.809-.5454-1.299-.5343-.496-.0062-.974.1862-1.325.5336s-.545.8203-.538 1.3115z"/><path d="m121.235 15.5662h1.421v9.9028h-1.421z"/><path d="m124.629 21.9048c-.123-1.2767.496-2.5122 1.597-3.1884s2.494-.6762 3.595 0 1.719 1.9117 1.596 3.1884c.126 1.278-.492 2.5159-1.594 3.1935-1.102.6777-2.497.6777-3.599 0-1.102-.6776-1.72-1.9155-1.595-3.1935zm5.327 0c0-1.5439-.701-2.4468-1.93-2.4468-1.235 0-1.929.9029-1.929 2.4468 0 1.5562.694 2.4521 1.929 2.4521 1.229 0 1.93-.9021 1.93-2.4521z"/><path d="m143.313 23.5459c-.398 1.3435-1.712 2.2116-3.118 2.0606-.96.0251-1.882-.3686-2.522-1.0765-.64-.708-.934-1.6586-.802-2.5998-.128-.9437.164-1.8959.801-2.6098.636-.714 1.555-1.1194 2.517-1.1113 2.002 0 3.21 1.354 3.21 3.5906v.4905h-5.082v.0787c-.045.5285.138 1.0513.503 1.4398.365.3884.878.6066 1.414.6007.695.0825 1.371-.2586 1.712-.8635zm-4.996-2.2953h3.635c.037-.4834-.135-.9594-.472-1.3108-.338-.3514-.809-.5454-1.299-.5343-.496-.0062-.974.1862-1.325.5336s-.545.8203-.539 1.3115z"/><path d="m145.307 18.3466h1.367v1.1315h.106c.369-.8331 1.232-1.3427 2.148-1.269.709-.0527 1.404.2166 1.889.7319.484.5154.706 1.2208.602 1.9172v4.6108h-1.421v-4.2578c0-1.1446-.502-1.7138-1.553-1.7138-.481-.0222-.948.1647-1.278.5116s-.491.8193-.44 1.2933v4.1667h-1.42z"/><path d="m163.604 23.5459c-.398 1.3435-1.712 2.2116-3.118 2.0606-.96.0251-1.882-.3686-2.522-1.0765-.64-.708-.934-1.6586-.802-2.5998-.128-.9437.164-1.8959.801-2.6098.636-.714 1.555-1.1194 2.517-1.1113 2.002 0 3.21 1.354 3.21 3.5906v.4905h-5.082v.0787c-.045.5285.138 1.0513.503 1.4398.365.3884.878.6066 1.414.6007.695.0825 1.371-.2586 1.712-.8635zm-4.996-2.2953h3.635c.037-.4834-.135-.9594-.473-1.3108-.337-.3514-.809-.5454-1.298-.5343-.496-.0062-.974.1863-1.325.5337-.351.3473-.545.8202-.539 1.3114z"/><path d="m165.663 15.5662h1.42v9.9028h-1.42z"/></g></svg>