<svg fill="none" viewBox="0 0 193 70" xmlns="http://www.w3.org/2000/svg" xmlns:xlink="http://www.w3.org/1999/xlink"><linearGradient id="a" gradientUnits="userSpaceOnUse" x1="27.8821" x2="17.9507" y1="26.2624" y2="20.2466"><stop offset="0" stop-color="#00f076"/><stop offset="1" stop-color="#0be070"/></linearGradient><linearGradient id="b" gradientUnits="userSpaceOnUse" x1="21.1543" x2="24.2269" y1="32.1581" y2="28.8341"><stop offset="0" stop-color="#00e2ff"/><stop offset="1" stop-color="#01c4f7"/></linearGradient><linearGradient id="c" gradientUnits="userSpaceOnUse" x1="17.3727" x2="25.1912" y1="48.1889" y2="44.6408"><stop offset="0" stop-color="#eb214e"/><stop offset="1" stop-color="#ff3a44"/></linearGradient><linearGradient id="d" gradientUnits="userSpaceOnUse" x1="38.9475" x2="31.7197" y1="35.5614" y2="35.5614"><stop offset="0" stop-color="#ffd902"/><stop offset="1" stop-color="#ffbd00"/></linearGradient><clipPath id="e"><path d="m0 0h193v70h-193z"/></clipPath><g clip-path="url(#e)"><path d="m182 0h-170.8c-6.18559 0-11.2 5.01441-11.2 11.2v47.6c0 6.1856 5.01441 11.2 11.2 11.2h170.8c6.186 0 11.2-5.0144 11.2-11.2v-47.6c0-6.18559-5.014-11.2-11.2-11.2z" fill="#2c2643"/><g fill="#fff"><path d="m57.5156 24.8763v-8.6454h2.6031c1.3015 0 2.4584.4322 3.1815 1.1527.8677.8645 1.1569 1.8732 1.1569 3.17s-.4338 2.3054-1.1569 3.17c-.7231.7204-1.88 1.1527-3.1815 1.1527zm1.1569-1.0086h1.5908c1.0123 0 1.7354-.2882 2.3138-.8646.5785-.5763.8677-1.4409.8677-2.4495s-.2892-1.8732-.8677-2.4496c-.5784-.5763-1.4461-.8645-2.3138-.8645h-1.5908z"/><path d="m66.0479 24.8763v-8.6454h1.1569v8.6454z"/><path d="m71.6883 25.0204c-.5785 0-1.3016-.1441-1.88-.5764-.5785-.4322-1.0123-1.0086-1.1569-1.729l1.0123-.4323c.1446.4323.4338.8645.723 1.1527.4339.2882.8677.4323 1.3016.4323.4338 0 .8677-.1441 1.3015-.4323.2892-.2882.5785-.5764.5785-1.0086 0-.4323-.1446-.8646-.5785-1.1528-.2892-.2881-.8677-.5763-1.5908-.7204-.723-.2882-1.3015-.5764-1.7353-.8646-.4339-.4322-.5785-.8645-.5785-1.4409 0-.5763.2892-1.1527.7231-1.585.4338-.4322 1.1569-.7204 1.88-.7204.723 0 1.3015.1441 1.7354.5764.4338.4322.723.7204.8676 1.1527l-1.0123.4322c-.1446-.2881-.2892-.5763-.5784-.7204-.2893-.2882-.7231-.2882-1.1569-.2882-.4339 0-.7231.1441-1.157.2882-.1446.2882-.2892.5764-.2892 1.0086 0 .2882.1446.5764.4339.8646.2892.2882.723.4322 1.3015.5763.4338.1441.7231.2882 1.0123.4323s.5785.2882.8677.5764c.2892.1441.5784.4322.7231.8645.1446.2882.2892.7205.2892 1.1527 0 .4323-.1446.8646-.2892 1.1528-.1447.2882-.4339.5763-.7231.7204-.4339 0-.7231.1441-1.0123.1441-.2893.1441-.7231.1441-1.0123.1441z"/><path d="m77.3278 24.8763h-1.1569v-8.6454h2.8923c.7231 0 1.3015.2882 1.88.7204.5784.4323.8677 1.1527.8677 1.8732s-.2893 1.2968-.8677 1.8732c-.5785.4323-1.1569.7204-1.88.7204h-1.7354zm0-4.6109h1.88c.4339 0 .8677-.1441 1.1569-.4323.2893-.2881.4339-.7204.4339-1.0086 0-.4323-.1446-.7205-.4339-1.0086-.2892-.2882-.723-.4323-1.1569-.4323h-1.88z"/><path d="m90.3433 23.7236c-.8677.8645-1.88 1.2968-3.1815 1.2968-1.3016 0-2.3139-.4323-3.1816-1.2968-.8676-.8646-1.3015-1.8732-1.3015-3.17s.4339-2.3055 1.3015-3.17c.8677-.8645 1.88-1.2968 3.1816-1.2968 1.3015 0 2.3138.4323 3.1815 1.2968s1.3015 1.8732 1.3015 3.17-.4338 2.3054-1.3015 3.17zm-5.4954-.7205c.5785.5764 1.4462 1.0087 2.3139 1.0087s1.7353-.2882 2.3138-1.0087c.5785-.5763 1.0123-1.4409 1.0123-2.4495s-.2892-1.8732-1.0123-2.4496c-.5785-.5763-1.4461-1.0086-2.3138-1.0086s-1.7354.2882-2.3139 1.0086c-.5784.5764-1.0123 1.441-1.0123 2.4496s.2893 1.8732 1.0123 2.4495z"/><path d="m93.2354 24.8763v-8.6454h1.3015l4.1938 6.7722v-1.7291-5.0431h1.1569v8.6454h-1.1569l-4.483-7.0604v1.7291 5.3313z"/><path d="m101.912 24.8763v-8.6454h1.157v8.6454z"/><path d="m104.949 24.8763v-8.6454h3.182c.723 0 1.301.2882 1.735.7204.434.4323.723 1.0087.723 1.7291 0 .4323-.144.7205-.289 1.1527-.145.2882-.434.5764-.868.7205.434.1441.723.4323 1.013.7204.289.2882.433.7205.433 1.2969 0 .7204-.289 1.2968-.723 1.7291-.578.4322-1.157.7204-1.88.7204h-3.326zm1.157-4.8991h2.025c.434 0 .723-.1441 1.012-.4322.289-.2882.434-.5764.434-.8646s-.289-.7204-.434-1.0086c-.289-.2882-.578-.4323-1.012-.4323h-2.025zm0 3.8905h2.314c.434 0 .723-.1441 1.012-.4323.29-.2882.434-.5764.434-1.0086 0-.2882-.144-.7205-.434-1.0087-.289-.2881-.578-.4322-1.012-.4322h-2.169v2.8818z"/><path d="m112.324 24.8763v-8.6454h1.157v7.6368h3.76v1.0086z"/><path d="m123.749 17.2395h-3.905v2.7377h3.616v1.0087h-3.616v2.7377h3.905v1.1527h-5.061v-8.6454h5.061z"/><path d="m133.438 17.2395h-3.904v2.7377h3.615v1.0087h-3.615v2.7377h3.904v1.1527h-5.061v-8.6454h5.061z"/><path d="m135.174 24.8763v-8.6454h1.301l4.194 6.7722v-1.7291-5.0431h1.157v8.6454h-1.157l-4.483-7.0604v1.7291 5.3313z"/><path d="m152.048 49.0951h2.69v-18.0074h-2.69zm24.246-11.521-3.086 7.8074h-.092l-3.203-7.8074h-2.899l4.803 10.9117-2.739 6.0701h2.807l7.402-16.9818zm-15.267 9.4755c-.88 0-2.111-.4408-2.111-1.5298 0-1.3886 1.532-1.923 2.855-1.923 1.182 0 1.74.2564 2.458.6021-.209 1.6695-1.647 2.8507-3.202 2.8507zm.326-9.8702c-1.949 0-3.967.8586-4.803 2.7571l2.389.9968c.511-.9968 1.462-1.3209 2.46-1.3209 1.392 0 2.807.834 2.83 2.3163v.1858c-.487-.278-1.532-.6943-2.807-.6943-2.576 0-5.198 1.4131-5.198 4.0535 0 2.4099 2.112 3.9628 4.478 3.9628 1.809 0 2.809-.811 3.434-1.7617h.093v1.39h2.6v-6.9042c0-3.1964-2.392-4.9812-5.476-4.9812zm-16.636 2.5871h-3.829v-6.1724h3.829c2.012 0 3.155 1.6623 3.155 3.0855 0 1.3958-1.143 3.0869-3.155 3.0869zm-.069-8.6803h-6.45v18.0089h2.69v-6.8221h3.76c2.983 0 5.916-2.1579 5.916-5.5934s-2.933-5.5934-5.916-5.5934zm-35.172 15.9663c-1.86 0-3.416-1.5543-3.416-3.6891 0-2.1593 1.556-3.7366 3.416-3.7366 1.835 0 3.276 1.5773 3.276 3.7366 0 2.1348-1.441 3.6891-3.276 3.6891zm3.09-8.47h-.093c-.604-.7188-1.767-1.3699-3.23-1.3699-3.068 0-5.881 2.6922-5.881 6.1508 0 3.4341 2.813 6.1033 5.881 6.1033 1.463 0 2.626-.6496 3.23-1.3929h.093v.8815c0 2.3451-1.255 3.5969-3.276 3.5969-1.651 0-2.674-1.1826-3.092-2.1809l-2.347.9752c.674 1.6235 2.462 3.62 5.439 3.62 3.16 0 5.833-1.8568 5.833-6.3828v-10.9995h-2.557zm4.417 10.5126h2.695v-18.0074h-2.695zm6.669-5.9406c-.069-2.3681 1.836-3.5738 3.207-3.5738 1.07 0 1.976.5344 2.279 1.2993zm8.367-2.0426c-.512-1.3684-2.069-3.8993-5.252-3.8993-3.161 0-5.788 2.4834-5.788 6.1278 0 3.4341 2.604 6.1263 6.089 6.1263 2.812 0 4.439-1.717 5.114-2.7153l-2.092-1.3929c-.698 1.0213-1.65 1.694-3.022 1.694-1.37 0-2.347-.6266-2.973-1.8568l8.202-3.388zm-65.361-2.0181v2.5987h6.2277c-.1847 1.462-.6737 2.5294-1.4167 3.2713-.9073.906-2.3254 1.9043-4.811 1.9043-3.8359 0-6.8336-3.0869-6.8336-6.9157s2.9977-6.9172 6.8336-6.9172c2.0687 0 3.5791.8124 4.6942 1.8582l1.8364-1.8337c-1.558-1.4852-3.6252-2.6231-6.5306-2.6231-5.2539 0-9.6697 4.271-9.6697 9.5158 0 5.2433 4.4158 9.5143 9.6697 9.5143 2.8347 0 4.9726-.9291 6.646-2.6692 1.7196-1.717 2.2548-4.1313 2.2548-6.0802 0-.6022-.0462-1.1596-.1399-1.6235zm15.9811 7.9587c-1.8581 0-3.4623-1.5313-3.4623-3.7121 0-2.2054 1.6042-3.7136 3.4623-3.7136 1.8595 0 3.4636 1.5082 3.4636 3.7136 0 2.1808-1.6041 3.7121-3.4636 3.7121zm0-9.8399c-3.393 0-6.1585 2.577-6.1585 6.1278 0 3.5277 2.7655 6.1263 6.1585 6.1263 3.3944 0 6.1598-2.5986 6.1598-6.1263 0-3.5508-2.7654-6.1278-6.1598-6.1278zm13.4363 9.8399c-1.8595 0-3.4637-1.5313-3.4637-3.7121 0-2.2054 1.6042-3.7136 3.4637-3.7136s3.4622 1.5082 3.4622 3.7136c0 2.1808-1.6027 3.7121-3.4622 3.7121zm0-9.8399c-3.393 0-6.1585 2.577-6.1585 6.1278 0 3.5277 2.7655 6.1263 6.1585 6.1263s6.1586-2.5986 6.1586-6.1263c0-3.5508-2.7656-6.1278-6.1586-6.1278z"/></g><path d="m37.7959 29.4737-21.3522-12.1823c-.9085-.517-1.9435-.3168-2.6234.3011l17.8994 17.9364z" fill="url(#a)"/><path d="m13.8205 17.5932c-.4413.4004-.7346.9737-.7346 1.6535v32.6911c0 .6179.2444 1.148.6196 1.5426l18.0144-17.9522z" fill="url(#b)"/><path d="m13.7051 53.4804c.6727.7058 1.7796.9622 2.7412.412l21.3824-12.2428-6.1093-6.1214z" fill="url(#c)"/><path d="m45.0408 33.6076-7.2463-4.1337-6.0748 6.0537 6.1078 6.1214 7.2161-4.1323c1.5108-.8642 1.5079-3.0463-.0028-3.9091z" fill="url(#d)"/></g></svg>